<mxfile host="app.diagrams.net" modified="2023-01-31T08:45:42.417Z" agent="5.0 (Windows NT 10.0; Win64; x64) AppleWebKit/537.36 (KHTML, like Gecko) Chrome/109.0.0.0 Safari/537.36 Edg/109.0.1518.70" etag="rl1He2Mf-CLdgtPRO3ZG" version="20.8.13" type="github">
  <diagram name="第 1 页" id="rETTcwL7LsP54SnjjD1j">
    <mxGraphModel dx="724" dy="401" grid="1" gridSize="10" guides="1" tooltips="1" connect="1" arrows="1" fold="1" page="1" pageScale="1" pageWidth="827" pageHeight="1169" math="0" shadow="0">
      <root>
        <mxCell id="0" />
        <mxCell id="1" parent="0" />
        <mxCell id="cih99ucHB3GzwZgFhCS5-3" value="" style="edgeStyle=orthogonalEdgeStyle;rounded=0;orthogonalLoop=1;jettySize=auto;html=1;" edge="1" parent="1" source="cih99ucHB3GzwZgFhCS5-1" target="cih99ucHB3GzwZgFhCS5-2">
          <mxGeometry relative="1" as="geometry" />
        </mxCell>
        <mxCell id="cih99ucHB3GzwZgFhCS5-1" value="开始步骤3" style="rounded=1;whiteSpace=wrap;html=1;fillColor=#FF9670;" vertex="1" parent="1">
          <mxGeometry x="70" y="10" width="70" height="30" as="geometry" />
        </mxCell>
        <mxCell id="cih99ucHB3GzwZgFhCS5-2" value="输入:&lt;br&gt;Line1,Line2,heady1,taily1,&lt;br&gt;heady2,taily2,Point1&lt;br&gt;待处理图像:P" style="shape=parallelogram;perimeter=parallelogramPerimeter;whiteSpace=wrap;html=1;fixedSize=1;" vertex="1" parent="1">
          <mxGeometry x="5" y="80" width="200" height="160" as="geometry" />
        </mxCell>
      </root>
    </mxGraphModel>
  </diagram>
</mxfile>
